<?xml version="1.0" encoding="UTF-8"?>
<svg version="1.1" xmlns="http://www.w3.org/2000/svg" width="400" height="400">
<path d="M0 0 C132 0 264 0 400 0 C400 132 400 264 400 400 C268 400 136 400 0 400 C0 268 0 136 0 0 Z " fill="#FEFEFE" transform="translate(0,0)"/>
<path d="M0 0 C0 76.56 0 153.12 0 232 C-22.12723203 230.83540884 -22.12723203 230.83540884 -29.1875 228.875 C-30.42137451 228.54677246 -30.42137451 228.54677246 -31.68017578 228.21191406 C-61.58523511 219.87894874 -86.7045449 199.5854534 -102.11767578 172.74316406 C-116.88087528 145.40390573 -120.58065357 112.55048464 -111.78125 82.703125 C-101.93140049 51.73584867 -80.61608777 26.8952639 -51.95092773 11.76757812 C-35.8810584 3.7726591 -17.85221485 0 0 0 Z " fill="#1C1F2D" transform="translate(179,81)"/>
<path d="M0 0 C10.63054744 9.10039288 20.08843271 22.91408675 21.34545898 37.22680664 C22.05880157 55.98608316 19.44608322 71.52996943 6.828125 86.26953125 C-3.30365242 96.82917089 -17.29226961 104.5367393 -32.15625 105.1953125 C-33.64050252 105.21477703 -35.12503744 105.2182738 -36.609375 105.20703125 C-37.39650879 105.2013916 -38.18364258 105.19575195 -38.99462891 105.18994141 C-54.82684003 104.8630035 -67.98548063 98.80964102 -79.1640625 87.75 C-91.09649206 75.10854202 -96.50082383 59.86993507 -96.1640625 42.6015625 C-94.85952241 26.7296581 -88.03849082 12.82755681 -76.421875 2.0078125 C-54.13166283 -16.37481674 -23.31968648 -17.17118991 0 0 Z " fill="#514ED8" transform="translate(291.859375,213.10546875)"/>
<path d="M0 0 C35.64 0 71.28 0 108 0 C108 35.64 108 71.28 108 108 C101.5680209 108 96.00513094 107.96135576 89.8125 106.8125 C89.08764404 106.6794043 88.36278809 106.54630859 87.6159668 106.40917969 C60.0237806 101.03442983 35.43744007 85.38378141 19.3125 62.3125 C6.39003532 43.05281677 0 23.31848254 0 0 Z " fill="#6A91FB" transform="translate(195,82)"/>
<path d="M0 0 C35.64 0 71.28 0 108 0 C108 35.64 108 71.28 108 108 C101.61666704 108 96.18453592 107.91622754 90 107 C90 106.67 90 106.34 90 106 C97.92 105.505 97.92 105.505 106 105 C106 70.68 106 36.36 106 1 C73.33 1 40.66 1 7 1 C7 1.99 7 2.98 7 4 C6.01 4.33 5.02 4.66 4 5 C3.59035068 11.31163396 4.22851375 17.2463342 5.375 23.4375 C5.50108643 24.13552734 5.62717285 24.83355469 5.75708008 25.55273438 C6.41720748 28.93614468 7.06184073 31.0927611 9 34 C9.103125 35.03125 9.20625 36.0625 9.3125 37.125 C10.47173725 43.6588827 14.18660355 48.74952466 17.75 54.25 C19.5940295 57.14032837 20.67412472 59.52399697 21 63 C16.60658808 58.85224122 13.89685635 54.26087124 11 49 C10.56429687 48.20980469 10.12859375 47.41960937 9.6796875 46.60546875 C2.5052859 32.27922657 0 15.83610513 0 0 Z " fill="#7291E5" transform="translate(195,82)"/>
<path d="M0 0 C0.33 0 0.66 0 1 0 C1 35.64 1 71.28 1 108 C-5.38333296 108 -10.81546408 107.91622754 -17 107 C-17 106.67 -17 106.34 -17 106 C-9.08 105.505 -9.08 105.505 -1 105 C-0.67 70.35 -0.34 35.7 0 0 Z " fill="#7893D5" transform="translate(302,82)"/>
<path d="M0 0 C1.71895916 1.61267943 3.40325916 3.26622543 5 5 C-0.29104394 4.27849401 -3.57000749 3.70250051 -7.0703125 -0.46484375 C-10.8752737 -3.75740351 -13.93870618 -4.17110383 -18.8125 -4.8125 C-19.99489258 -4.99329102 -19.99489258 -4.99329102 -21.20117188 -5.17773438 C-23.13142007 -5.47019622 -25.06542923 -5.73764917 -27 -6 C-27 -6.66 -27 -7.32 -27 -8 C-27.89307861 -7.9388501 -27.89307861 -7.9388501 -28.80419922 -7.87646484 C-31.49387443 -7.6984137 -34.18428344 -7.53651641 -36.875 -7.375 C-38.28072266 -7.27832031 -38.28072266 -7.27832031 -39.71484375 -7.1796875 C-41.05869141 -7.10234375 -41.05869141 -7.10234375 -42.4296875 -7.0234375 C-43.25710449 -6.97106934 -44.08452148 -6.91870117 -44.93701172 -6.86474609 C-47 -7 -47 -7 -49 -9 C-32.17007472 -13.07599753 -14.48023605 -8.9587319 0 0 Z " fill="#5E5ABF" transform="translate(289,211)"/>
<path d="M0 0 C0.78184023 2.34552069 1.04420328 3.78739664 0.53564453 6.23339844 C-0.07811658 9.40347179 -0.12961935 12.34939154 -0.1328125 15.578125 C-0.13474609 17.44210938 -0.13474609 17.44210938 -0.13671875 19.34375 C-0.13285156 20.6328125 -0.12898437 21.921875 -0.125 23.25 C-0.12886719 24.55453125 -0.13273438 25.8590625 -0.13671875 27.203125 C-0.13542969 28.440625 -0.13414062 29.678125 -0.1328125 30.953125 C-0.13168457 32.08911133 -0.13055664 33.22509766 -0.12939453 34.39550781 C-0.29562535 36.928091 -0.29562535 36.928091 1 38 C1.04092937 40.33297433 1.04241723 42.66705225 1 45 C-4.79677317 36.30484024 -5.55855741 22.9822146 -3.59423828 12.921875 C-2.58185666 8.55778354 -1.34115098 4.27491876 0 0 Z " fill="#5654C2" transform="translate(200,237)"/>
<path d="M0 0 C0.66 0 1.32 0 2 0 C5.96877739 11.90633218 3.53793803 28.32136413 -1.58203125 39.43359375 C-4.49771659 45.13156707 -7.29125946 49.60679362 -12 54 C-12.98120464 50.94736336 -12.98120464 49.05263664 -12 46 C-10.02 45.505 -10.02 45.505 -8 45 C-8 44.34 -8 43.68 -8 43 C-7.01 43 -6.02 43 -5 43 C-5 41.35 -5 39.7 -5 38 C-4.01 37.505 -4.01 37.505 -3 37 C1.78868215 25.69241842 2.91545555 11.9699598 0 0 Z " fill="#5E5ABA" transform="translate(310,245)"/>
<path d="M0 0 C0.55816406 0.70769531 1.11632812 1.41539062 1.69140625 2.14453125 C4.04411346 5.05456335 6.45682589 7.88575251 8.9375 10.6875 C9.77152344 11.64011719 10.60554687 12.59273437 11.46484375 13.57421875 C13.9808624 15.98168806 15.7756732 16.85805092 19 18 C19.68268138 19.32520503 20.3507041 20.65812182 21 22 C23.02463255 22.65213292 23.02463255 22.65213292 25 23 C25.33 23.66 25.66 24.32 26 25 C27.64142963 26.0409066 29.30712215 27.04504326 31 28 C30.67 28.66 30.34 29.32 30 30 C17.83303821 21.93318991 7.58794148 13.09329461 -2 2 C-1.34 1.34 -0.68 0.68 0 0 Z " fill="#7C98DE" transform="translate(219,146)"/>
<path d="M0 0 C-2.06049855 0.81756238 -4.12348853 1.62884734 -6.1875 2.4375 C-7.33605469 2.88996094 -8.48460937 3.34242188 -9.66796875 3.80859375 C-21.71888107 8.11753661 -36.02209689 6.9456622 -48 3 C-44.83293977 1.98252816 -42.83305682 2.07572305 -39.625 2.875 C-33.14056994 4.31167013 -26.61766549 4.63764944 -20 5 C-20 4.34 -20 3.68 -20 3 C-17.03 3 -14.06 3 -11 3 C-11 2.34 -11 1.68 -11 1 C-4.03571429 -1.27678571 -4.03571429 -1.27678571 0 0 Z " fill="#5D59BB" transform="translate(282,312)"/>
<path d="M0 0 C0.98355469 0.87140625 1.96710938 1.7428125 2.98046875 2.640625 C6.89298222 5.99448948 11.03382821 8.88697773 15.3125 11.75 C16.72655476 12.70120365 18.13937398 13.65424737 19.55078125 14.609375 C20.16606689 15.02155273 20.78135254 15.43373047 21.4152832 15.85839844 C23 17 23 17 25 19 C24.01 19.33 23.02 19.66 22 20 C22 19.34 22 18.68 22 18 C21.113125 17.731875 20.22625 17.46375 19.3125 17.1875 C16.2211019 16.07926295 13.75539549 14.76039156 11 13 C10.34 12.67 9.68 12.34 9 12 C9 11.34 9 10.68 9 10 C8.34 10 7.68 10 7 10 C7 9.34 7 8.68 7 8 C6.4225 7.773125 5.845 7.54625 5.25 7.3125 C2.4336339 5.66961977 0.91922886 3.60466773 -1 1 C-0.67 0.67 -0.34 0.34 0 0 Z " fill="#E8F6FD" transform="translate(226,158)"/>
<path d="M0 0 C7.00152116 6.17781279 11.07903756 14.23711268 14 23 C13.01 23 12.02 23 11 23 C10.34 20.03 9.68 17.06 9 14 C8.34 14 7.68 14 7 14 C7 13.34 7 12.68 7 12 C6.34 12 5.68 12 5 12 C5 11.34 5 10.68 5 10 C4.34 10 3.68 10 3 10 C0.96564469 6.27034861 0 4.33094958 0 0 Z " fill="#5D5BC0" transform="translate(297,219)"/>
<path d="M0 0 C0.66 0 1.32 0 2 0 C2.44730469 0.9178125 2.89460937 1.835625 3.35546875 2.78125 C7.28802097 10.85287012 7.28802097 10.85287012 11.875 18.5625 C13.69582525 21.33851226 14.68408695 23.63026083 15 27 C7.87919541 20.27734793 3.54357609 11.03141518 0 2 C0 1.34 0 0.68 0 0 Z " fill="#7F99DF" transform="translate(201,118)"/>
<path d="M0 0 C1.5677367 2.82017662 2.30224024 5.08605198 2.59765625 8.29296875 C2.71657227 9.4850293 2.71657227 9.4850293 2.83789062 10.70117188 C2.91201172 11.52166016 2.98613281 12.34214844 3.0625 13.1875 C3.09392758 18.51962887 3.09392758 18.51962887 5 23 C5.04092937 25.33297433 5.04241723 27.66705225 5 30 C-0.76606397 21.35090404 -0.40523817 10.01088369 0 0 Z " fill="#605DC1" transform="translate(196,252)"/>
<path d="M0 0 C1.98 0.66 3.96 1.32 6 2 C2.0299782 6.21814817 -2.30840284 9.61227103 -7 13 C-7.33 12.34 -7.66 11.68 -8 11 C-7.21625 10.649375 -6.4325 10.29875 -5.625 9.9375 C-2.15795483 7.37849047 -1.91413509 5.11360789 -1 1 C-0.67 0.67 -0.34 0.34 0 0 Z " fill="#5A58C7" transform="translate(291,298)"/>
<path d="M0 0 C0.33 0.66 0.66 1.32 1 2 C-0.175625 2.0928125 -0.175625 2.0928125 -1.375 2.1875 C-2.24125 2.455625 -3.1075 2.72375 -4 3 C-4.309375 3.804375 -4.61875 4.60875 -4.9375 5.4375 C-6 8 -6 8 -8.9375 9.4375 C-12 10 -12 10 -15 8 C-10.14310063 4.80832327 -5.40747098 2.14045726 0 0 Z " fill="#5958BE" transform="translate(235,204)"/>
<path d="M0 0 C2.01822917 0.06510417 4.03645833 0.13020833 6.0546875 0.1953125 C7.12243974 2.15997663 8.12022215 4.16386609 9.0546875 6.1953125 C8.7246875 6.8553125 8.3946875 7.5153125 8.0546875 8.1953125 C4.0946875 6.2153125 0.1346875 4.2353125 -3.9453125 2.1953125 C-1.9453125 0.1953125 -1.9453125 0.1953125 0 0 Z " fill="#F1F3F9" transform="translate(280.9453125,203.8046875)"/>
<path d="M0 0 C2 2 2 2 2.4375 4.3125 C1.81702912 8.12396398 -0.12900717 9.53914901 -3 12 C-3.99 12.495 -3.99 12.495 -5 13 C-5.66 12.34 -6.32 11.68 -7 11 C-6.57847656 10.37351562 -6.15695312 9.74703125 -5.72265625 9.1015625 C-4.90087891 7.87566406 -4.90087891 7.87566406 -4.0625 6.625 C-3.24458984 5.40683594 -3.24458984 5.40683594 -2.41015625 4.1640625 C-0.98906121 2.07280816 -0.98906121 2.07280816 0 0 Z " fill="#EEEEFA" transform="translate(307,285)"/>
<path d="M0 0 C0 3 0 3 -2 6 C-2.66 6 -3.32 6 -4 6 C-4.0825 6.721875 -4.165 7.44375 -4.25 8.1875 C-5.15114559 11.56679596 -6.73166763 13.37724069 -9 16 C-9.33 16.66 -9.66 17.32 -10 18 C-10.66 17.67 -11.32 17.34 -12 17 C-10.75698364 14.91221525 -9.50599259 12.82995936 -8.25 10.75 C-7.90195313 10.16347656 -7.55390625 9.57695312 -7.1953125 8.97265625 C-5.11481691 5.54369129 -2.96785381 2.7004796 0 0 Z " fill="#5D59BB" transform="translate(213,218)"/>
<path d="M0 0 C0.99 0.99 1.98 1.98 3 3 C1.02 5.64 -0.96 8.28 -3 11 C-5 7 -5 7 -4.625 4.75 C-4.41875 4.1725 -4.2125 3.595 -4 3 C-2.68 2.67 -1.36 2.34 0 2 C0 1.34 0 0.68 0 0 Z " fill="#5B56C7" transform="translate(302,288)"/>
<path d="M0 0 C0 0.66 0 1.32 0 2 C0.66 2 1.32 2 2 2 C2 2.66 2 3.32 2 4 C1.01 4 0.02 4 -1 4 C-1 4.66 -1 5.32 -1 6 C-2.65 5.67 -4.3 5.34 -6 5 C-6 4.34 -6 3.68 -6 3 C-6.66 2.67 -7.32 2.34 -8 2 C-2.25 0 -2.25 0 0 0 Z " fill="#262A34" transform="translate(141,88)"/>
<path d="M0 0 C5.875 2.75 5.875 2.75 7 5 C6.01 6.485 6.01 6.485 5 8 C2.69 6.35 0.38 4.7 -2 3 C-1.34 2.01 -0.68 1.02 0 0 Z " fill="#282A34" transform="translate(111,287)"/>
<path d="M0 0 C5 2 10 4 15 6 C14.67 6.66 14.34 7.32 14 8 C12.53815942 7.77139942 11.08044581 7.51629608 9.625 7.25 C8.81289063 7.11078125 8.00078125 6.9715625 7.1640625 6.828125 C5 6 5 6 3.7109375 3.921875 C3.47632813 3.28765625 3.24171875 2.6534375 3 2 C2.01 2 1.02 2 0 2 C0 1.34 0 0.68 0 0 Z " fill="#E8F4FD" transform="translate(251,177)"/>
<path d="M0 0 C4.20240011 3.71750779 6.99782679 8.31660979 10 13 C8.02 13 6.04 13 4 13 C4.2475 12.4225 4.495 11.845 4.75 11.25 C4.8325 10.5075 4.915 9.765 5 9 C3.68870078 7.64499081 2.35308313 6.31328657 1 5 C0.25 2.25 0.25 2.25 0 0 Z " fill="#E5F2FB" transform="translate(210,138)"/>
<path d="M0 0 C3.12436746 2.08291164 3.5365026 2.61276477 4.75 5.9375 C5.14445313 6.97197266 5.14445313 6.97197266 5.546875 8.02734375 C6 10 6 10 5 13 C3.96679519 11.40377344 2.94877571 9.79770894 1.9375 8.1875 C1.36902344 7.29417969 0.80054688 6.40085937 0.21484375 5.48046875 C-1 3 -1 3 0 0 Z " fill="#5A57BB" transform="translate(202,281)"/>
<path d="M0 0 C1.98 0.66 3.96 1.32 6 2 C3.77174356 4.22825644 2.34238372 4.69239369 -0.625 5.625 C-1.44226563 5.88539063 -2.25953125 6.14578125 -3.1015625 6.4140625 C-3.72804687 6.60742188 -4.35453125 6.80078125 -5 7 C-3.88820837 3.66462511 -2.52588702 2.36292656 0 0 Z " fill="#EBEDF9" transform="translate(231,201)"/>
<path d="M0 0 C0.33 0 0.66 0 1 0 C1.33 5.61 1.66 11.22 2 17 C1.34 17 0.68 17 0 17 C-0.97040422 11.06975197 -0.89316269 5.93609666 0 0 Z " fill="#E0EEFD" transform="translate(194,81)"/>
<path d="M0 0 C0.66 0.33 1.32 0.66 2 1 C0.375 3.9375 0.375 3.9375 -2 7 C-5.25 7.875 -5.25 7.875 -8 8 C-5.33333333 5.33333333 -2.66666667 2.66666667 0 0 Z M-10 8 C-8 9 -8 9 -8 9 Z " fill="#E9EEFB" transform="translate(297,300)"/>
<path d="M0 0 C0.58007812 0.20496094 1.16015625 0.40992188 1.7578125 0.62109375 C6.1621984 2.14009813 10.35677777 3.4047151 15 4 C15 4.33 15 4.66 15 5 C4.11971831 5.57042254 4.11971831 5.57042254 0 2 C0 1.34 0 0.68 0 0 Z " fill="#E9ECFC" transform="translate(231,313)"/>
<path d="M0 0 C3.7952131 1.49097658 5.61042731 3.75700849 8 7 C6.02 7 4.04 7 2 7 C1.34 4.69 0.68 2.38 0 0 Z " fill="#ECEFFC" transform="translate(208,297)"/>
<path d="M0 0 C1.98 0 3.96 0 6 0 C6.33 1.32 6.66 2.64 7 4 C6.34 4 5.68 4 5 4 C4.67 4.66 4.34 5.32 4 6 C0 1.125 0 1.125 0 0 Z " fill="#2B2D3A" transform="translate(93,274)"/>
<path d="M0 0 C2.97 0 5.94 0 9 0 C9.33 0.99 9.66 1.98 10 3 C2.25 2.25 2.25 2.25 0 0 Z " fill="#7D97E2" transform="translate(274,185)"/>
<path d="M0 0 C3.77727089 1.81309003 7.37269822 3.9073259 11 6 C10.01 6.495 10.01 6.495 9 7 C6.6171875 6.00390625 6.6171875 6.00390625 3.875 4.5625 C2.96492187 4.08941406 2.05484375 3.61632812 1.1171875 3.12890625 C0.41851562 2.75636719 -0.28015625 2.38382813 -1 2 C-0.67 1.34 -0.34 0.68 0 0 Z " fill="#839BE2" transform="translate(252,175)"/>
<path d="M0 0 C2.15377564 2.62198774 3.40072174 4.64404172 4 8 C2.0625 7.25 2.0625 7.25 0 6 C-0.8125 4 -0.8125 4 -1 2 C-0.67 1.34 -0.34 0.68 0 0 Z " fill="#E4F2FD" transform="translate(202,122)"/>
<path d="M0 0 C4.95 0.99 4.95 0.99 10 2 C9.34 3.32 8.68 4.64 8 6 C7.608125 5.54625 7.21625 5.0925 6.8125 4.625 C4.69167513 2.72357081 2.66957765 1.93795972 0 1 C0 0.67 0 0.34 0 0 Z " fill="#EAF6FD" transform="translate(270,185)"/>
<path d="M0 0 C2.375 0.25 2.375 0.25 5 1 C6.3125 3.0625 6.3125 3.0625 7 5 C3.34683329 3.75023244 2.21934164 3.32901247 0 0 Z " fill="#5758BB" transform="translate(219,305)"/>
</svg>
