<?xml version="1.0" encoding="UTF-8"?>
<svg version="1.1" xmlns="http://www.w3.org/2000/svg" width="200" height="200">
<path d="M0 0 C66 0 132 0 200 0 C200 66 200 132 200 200 C134 200 68 200 0 200 C0 134 0 68 0 0 Z " fill="#FEFEFE" transform="translate(0,0)"/>
<path d="M0 0 C4.79642831 0.95928566 8.1881767 2.54618165 12.375 4.875 C18.9735083 8.45501885 25.6478513 11.7982448 32.4375 15 C42.50661399 19.76055866 52.48140174 24.69626208 62.4375 29.6875 C63.14317108 30.04126709 63.84884216 30.39503418 64.57589722 30.75952148 C67.33426574 32.142863 70.09258557 33.52628086 72.84886169 34.91378784 C76.35312835 36.67708844 79.86281545 38.4279691 83.38330078 40.15869141 C84.45874901 40.68968193 84.45874901 40.68968193 85.55592346 41.23139954 C86.91113134 41.89999679 88.26790162 42.5654411 89.62657166 43.22697449 C91.43331251 44.12044401 93.21728261 45.0595113 95 46 C96.69394897 46.74817993 96.69394897 46.74817993 98.42211914 47.51147461 C101.42107354 50.40647813 101.43372415 51.12425466 101.68115234 55.13574219 C101.68020345 57.27302192 101.64636233 59.41044939 101.5859375 61.546875 C101.57744781 62.6732135 101.56895813 63.799552 101.56021118 64.96002197 C101.52662314 68.55765412 101.45132668 72.1530453 101.375 75.75 C101.34490771 78.18876972 101.31753064 80.62757456 101.29296875 83.06640625 C101.22681396 89.04503548 101.12640933 95.02235767 101 101 C100.35170227 101.30769318 99.70340454 101.61538635 99.03546143 101.93240356 C96.04872382 103.35136492 93.06342055 104.77331991 90.078125 106.1953125 C89.0586377 106.67911377 88.03915039 107.16291504 86.98876953 107.66137695 C80.83191409 110.59707981 74.75420873 113.63862585 68.75 116.875 C63.48268188 119.70745385 58.20219583 122.35039096 52.7265625 124.765625 C47.68399097 127.04850839 42.76436384 129.58369288 37.82470703 132.07958984 C34.76247306 133.62422753 31.69340059 135.15515984 28.625 136.6875 C27.47 137.265 26.315 137.8425 25.125 138.4375 C17.625 142.1875 17.625 142.1875 15.80859375 143.08984375 C14.48210029 143.75738798 13.16273477 144.43914637 11.84765625 145.12890625 C10.77837891 145.68384766 10.77837891 145.68384766 9.6875 146.25 C9.05199219 146.58515625 8.41648437 146.9203125 7.76171875 147.265625 C6 148 6 148 3 148 C3 148.66 3 149.32 3 150 C2.01 150 1.02 150 0 150 C0 133.5 0 117 0 100 C11.83555327 93.75141598 23.6728817 87.58112276 35.75 81.8125 C37.22158569 81.10903442 37.22158569 81.10903442 38.72290039 80.39135742 C45.58092838 77.13969054 45.58092838 77.13969054 49 76 C46.88909656 73.68938332 44.99333941 72.34174813 42.1484375 71.0546875 C41.38781006 70.70438477 40.62718262 70.35408203 39.84350586 69.99316406 C39.02889893 69.62416992 38.21429199 69.25517578 37.375 68.875 C30.11611015 65.5173729 22.99859333 61.98116546 15.96044922 58.18310547 C10.68582138 55.33861685 5.37089853 52.68544927 0 50 C0 33.5 0 17 0 0 Z " fill="#0799D7" transform="translate(75,25)"/>
<path d="M0 0 C2.97390269 1.36600315 5.82621464 2.913609 8.6875 4.5 C16.21362546 8.57603617 23.82013497 12.37143326 31.5925293 15.95507812 C36.20719443 18.0958554 40.61762036 20.41462788 45 23 C45 23.66 45 24.32 45 25 C44.19304687 25.40347656 43.38609375 25.80695313 42.5546875 26.22265625 C41.98645264 26.50681396 41.41821777 26.79097168 40.83276367 27.08374023 C39.49711834 27.75147962 38.16133778 28.41894856 36.82543945 29.08618164 C32.34135847 31.32654342 27.85984936 33.5719454 23.38085938 35.82246399 C20.6675094 37.18543888 17.953333 38.54676349 15.23907471 39.90792847 C13.87164975 40.5941632 12.50458379 41.28111376 11.13787842 41.96878052 C9.19049822 42.94848633 7.24186942 43.92566685 5.29296875 44.90234375 C4.1536792 45.47460693 3.01438965 46.04687012 1.84057617 46.63647461 C-1 48 -1 48 -4 49 C-4 65.5 -4 82 -4 99 C-3.01 99 -2.02 99 -1 99 C-1 98.34 -1 97.68 -1 97 C1.475 96.505 1.475 96.505 4 96 C3.67 96.66 3.34 97.32 3 98 C2.34 98 1.68 98 1 98 C1 98.66 1 99.32 1 100 C-0.98 100 -2.96 100 -5 100 C-5 83.17 -5 66.34 -5 49 C-6.98 48.34 -8.96 47.68 -11 47 C-12.3944605 46.35149794 -13.7731432 45.6673412 -15.12890625 44.94140625 C-15.85400391 44.55533203 -16.57910156 44.16925781 -17.32617188 43.77148438 C-18.06416016 43.37251953 -18.80214844 42.97355469 -19.5625 42.5625 C-20.30435547 42.16740234 -21.04621094 41.77230469 -21.81054688 41.36523438 C-24.85826691 39.73417494 -27.86420867 38.08237756 -30.8203125 36.2890625 C-33.44061291 34.73942247 -36.09408734 33.87853173 -39 33 C-39 32.34 -39 31.68 -39 31 C-40.175625 30.7525 -41.35125 30.505 -42.5625 30.25 C-46.90806003 29.18103871 -50.21724066 27.36422459 -54 25 C-54 24.34 -54 23.68 -54 23 C-41.70276395 16.31492537 -29.19851269 10.14771192 -16.51904297 4.22021484 C-14.90830993 3.43998188 -13.31565657 2.62046941 -11.75048828 1.75244141 C-7.40711691 -0.6504719 -4.9377526 -1.67338471 0 0 Z " fill="#F6FCFC" transform="translate(79,76)"/>
<path d="M0 0 C0 16.83 0 33.66 0 51 C-0.66 51 -1.32 51 -2 51 C-2 50.34 -2 49.68 -2 49 C-2.721875 48.731875 -3.44375 48.46375 -4.1875 48.1875 C-7 47 -7 47 -9.1875 45.5625 C-12.55289835 43.69283425 -15.88398642 42.80506977 -19.59765625 41.84375 C-22.20371539 40.92845118 -23.82904219 39.6847315 -26 38 C-27.56222667 37.22664607 -29.1465603 36.49631987 -30.75 35.8125 C-31.54921875 35.46832031 -32.3484375 35.12414062 -33.171875 34.76953125 C-33.77515625 34.51558594 -34.3784375 34.26164062 -35 34 C-35 33.34 -35 32.68 -35 32 C-35.66 31.9175 -36.32 31.835 -37 31.75 C-40.34198743 30.91450314 -43.01638312 29.56345305 -46.03515625 27.9375 C-48.01155698 26.99448574 -49.86382253 26.45673282 -52 26 C-52 25.34 -52 24.68 -52 24 C-50.68 24 -49.36 24 -48 24 C-48 23.34 -48 22.68 -48 22 C-47.34773437 21.75765625 -46.69546875 21.5153125 -46.0234375 21.265625 C-40.87223063 19.29023593 -36.57336892 17.11378309 -32 14 C-29.79241658 12.93969727 -27.55772053 11.97134393 -25.3046875 11.01171875 C-23.06627979 10.0290957 -20.91593936 8.94450982 -18.75 7.8125 C-15.85549886 6.33630442 -13.25687907 5.40710988 -10 5 C-10 4.34 -10 3.68 -10 3 C-3.375 0 -3.375 0 0 0 Z " fill="#02B3EC" transform="translate(176,75)"/>
<path d="M0 0 C0 16.17 0 32.34 0 49 C-7.87623588 47.87482345 -7.87623588 47.87482345 -11.2265625 46.0390625 C-11.9484375 45.64976563 -12.6703125 45.26046875 -13.4140625 44.859375 C-14.14367188 44.45203125 -14.87328125 44.0446875 -15.625 43.625 C-16.36234375 43.22539063 -17.0996875 42.82578125 -17.859375 42.4140625 C-20.88692328 40.76464552 -23.87123518 39.07840188 -26.81640625 37.28515625 C-29.4391176 35.7415569 -32.09485029 34.87830108 -35 34 C-35 33.34 -35 32.68 -35 32 C-36.175625 31.7525 -37.35125 31.505 -38.5625 31.25 C-42.90806003 30.18103871 -46.21724066 28.36422459 -50 26 C-50 25.34 -50 24.68 -50 24 C-37.70462447 17.31593679 -25.19086869 11.18586656 -12.53466797 5.21630859 C-10.15014609 4.07205046 -7.79481094 2.88242446 -5.44140625 1.67578125 C-2 0 -2 0 0 0 Z " fill="#08F821" transform="translate(75,75)"/>
<path d="M0 0 C1.13695312 0.556875 2.27390625 1.11375 3.4453125 1.6875 C4.59773438 2.244375 5.75015625 2.80125 6.9375 3.375 C7.80632812 3.808125 8.67515625 4.24125 9.5703125 4.6875 C9.5703125 5.3475 9.5703125 6.0075 9.5703125 6.6875 C10.28574219 6.79320313 11.00117188 6.89890625 11.73828125 7.0078125 C14.86255656 7.75763858 17.11039262 8.94960161 19.8828125 10.5625 C23.72915947 12.73025378 27.41577105 14.46492971 31.578125 15.8984375 C35.44029246 17.42815873 38.9922457 19.5920118 42.5703125 21.6875 C41.5703125 24.6875 41.5703125 24.6875 38.53515625 26.44921875 C37.19751678 27.10110634 35.85464383 27.74232144 34.5078125 28.375 C33.04283568 29.08436067 31.57799575 29.7940041 30.11328125 30.50390625 C28.982854 31.0455542 28.982854 31.0455542 27.82958984 31.59814453 C24.3066559 33.29679714 20.81456781 35.05582288 17.3203125 36.8125 C16.00276565 37.47167704 14.68505989 38.13053655 13.3671875 38.7890625 C12.73490234 39.10520508 12.10261719 39.42134766 11.45117188 39.74707031 C4.51074219 43.21728516 4.51074219 43.21728516 -2.4296875 46.6875 C-2.4296875 45.6975 -2.4296875 44.7075 -2.4296875 43.6875 C1.79253472 40.6875 1.79253472 40.6875 4.5703125 40.6875 C4.7971875 40.04941406 5.0240625 39.41132813 5.2578125 38.75390625 C6.5703125 36.6875 6.5703125 36.6875 8.8828125 35.96484375 C9.7696875 35.85269531 10.6565625 35.74054688 11.5703125 35.625 C14.2146453 35.33794195 14.2146453 35.33794195 16.5703125 34.6875 C17.2303125 33.6975 17.8903125 32.7075 18.5703125 31.6875 C19.2303125 31.6875 19.8903125 31.6875 20.5703125 31.6875 C20.5703125 31.0275 20.5703125 30.3675 20.5703125 29.6875 C19.9103125 29.6875 19.2503125 29.6875 18.5703125 29.6875 C18.5703125 29.0275 18.5703125 28.3675 18.5703125 27.6875 C19.2303125 27.6875 19.8903125 27.6875 20.5703125 27.6875 C20.5703125 27.0275 20.5703125 26.3675 20.5703125 25.6875 C22.4884375 25.4709375 22.4884375 25.4709375 24.4453125 25.25 C26.82724144 24.98107254 28.41483941 24.76523654 30.5703125 23.6875 C30.5703125 24.3475 30.5703125 25.0075 30.5703125 25.6875 C31.5603125 25.6875 32.5503125 25.6875 33.5703125 25.6875 C33.09004402 22.73931069 33.09004402 22.73931069 31.5703125 19.6875 C28.22697676 17.8498762 28.22697676 17.8498762 24.5703125 16.6875 C20.70590572 14.95868644 20.70590572 14.95868644 19.5703125 12.6875 C17.92650907 12.21784188 16.28067012 11.75406503 14.625 11.328125 C11.07071355 10.21994443 7.84413253 8.4392063 4.5703125 6.6875 C4.5703125 6.0275 4.5703125 5.3675 4.5703125 4.6875 C2.2603125 4.6875 -0.0496875 4.6875 -2.4296875 4.6875 C-2.0996875 5.6775 -1.7696875 6.6675 -1.4296875 7.6875 C-2.0896875 7.6875 -2.7496875 7.6875 -3.4296875 7.6875 C-3.4296875 8.3475 -3.4296875 9.0075 -3.4296875 9.6875 C-4.0896875 9.6875 -4.7496875 9.6875 -5.4296875 9.6875 C-5.831875 8.2334375 -5.831875 8.2334375 -6.2421875 6.75 C-6.6340625 5.739375 -7.0259375 4.72875 -7.4296875 3.6875 C-8.4196875 3.3575 -9.4096875 3.0275 -10.4296875 2.6875 C-10.0996875 3.6775 -9.7696875 4.6675 -9.4296875 5.6875 C-10.4196875 6.3475 -11.4096875 7.0075 -12.4296875 7.6875 C-16.1171875 6.3125 -16.1171875 6.3125 -19.4296875 4.6875 C-13.18750466 -0.35426306 -7.83066515 -2.99670101 0 0 Z " fill="#0A81BD" transform="translate(131.4296875,102.3125)"/>
<path d="M0 0 C5.81209477 1.67990779 11.00619479 4.39229433 16.375 7.125 C18.33979486 8.11728432 20.304639 9.10947104 22.26953125 10.1015625 C23.72093506 10.83681152 23.72093506 10.83681152 25.20166016 11.58691406 C27.73765544 12.86752309 30.27878897 14.13671046 32.82421875 15.3984375 C33.54625488 15.75663574 34.26829102 16.11483398 35.01220703 16.48388672 C36.33681178 17.14035313 37.66196935 17.79570578 38.98779297 18.44970703 C42.42258738 20.15823965 45.73947985 21.97835424 49 24 C47.02579865 26.52259061 46.03254358 26.9929808 42.8125 27.6875 C41.884375 27.790625 40.95625 27.89375 40 28 C40 28.66 40 29.32 40 30 C39.46632812 30.23074219 38.93265625 30.46148437 38.3828125 30.69921875 C33.20394907 32.9660915 28.16575914 35.41106026 23.1640625 38.046875 C21 39 21 39 18 39 C19 36 19 36 20.63671875 34.90234375 C21.31347656 34.58394531 21.99023438 34.26554687 22.6875 33.9375 C23.40550781 33.59589844 24.12351563 33.25429687 24.86328125 32.90234375 C27 32 27 32 30.375 31 C33.13987251 30.24288827 33.13987251 30.24288827 34.375 27.875 C34.58125 27.25625 34.7875 26.6375 35 26 C36.98 26 38.96 26 41 26 C41 25.01 41 24.02 41 23 C36.71 22.34 32.42 21.68 28 21 C27.67 19.02 27.34 17.04 27 15 C25.865625 15.04125 24.73125 15.0825 23.5625 15.125 C18.85616438 15.14183841 14.53683996 14.17621777 10 13 C10 12.34 10 11.68 10 11 C9.34 10.67 8.68 10.34 8 10 C8.66 9.67 9.32 9.34 10 9 C10 8.34 10 7.68 10 7 C9.0925 6.773125 8.185 6.54625 7.25 6.3125 C3.55111676 4.81872023 2.22094342 3.24599423 0 0 Z " fill="#1B68A8" transform="translate(126,50)"/>
<path d="M0 0 C3.55780196 0.60990891 6.6828589 1.5783681 10 3 C7.26072031 6.30953866 3.60135098 7.86355635 -0.1875 9.6875 C-1.63159331 10.39566432 -3.07560127 11.10400271 -4.51953125 11.8125 C-5.63062256 12.35390625 -5.63062256 12.35390625 -6.76416016 12.90625 C-10.31325266 14.64242978 -13.84343988 16.41600818 -17.375 18.1875 C-18.6952162 18.84784881 -20.01552595 19.50801064 -21.3359375 20.16796875 C-21.9556543 20.47782715 -22.57537109 20.78768555 -23.21386719 21.10693359 C-27.14257812 23.07128906 -31.07128906 25.03564453 -35 27 C-35 26.01 -35 25.02 -35 24 C-30.77777778 21 -30.77777778 21 -28 21 C-27.773125 20.36191406 -27.54625 19.72382813 -27.3125 19.06640625 C-26 17 -26 17 -23.6875 16.27734375 C-22.800625 16.16519531 -21.91375 16.05304688 -21 15.9375 C-18.3556672 15.65044195 -18.3556672 15.65044195 -16 15 C-15.34 14.01 -14.68 13.02 -14 12 C-13.34 12 -12.68 12 -12 12 C-12 11.34 -12 10.68 -12 10 C-12.66 10 -13.32 10 -14 10 C-14 9.34 -14 8.68 -14 8 C-13.34 8 -12.68 8 -12 8 C-12 7.34 -12 6.68 -12 6 C-10.72125 5.855625 -9.4425 5.71125 -8.125 5.5625 C-5.74307106 5.29357254 -4.15547309 5.07773654 -2 4 C-2 4.66 -2 5.32 -2 6 C-1.01 6 -0.02 6 1 6 C0.505 3.03 0.505 3.03 0 0 Z " fill="#2082B7" transform="translate(164,122)"/>
<path d="M0 0 C-1.00617682 2.67576692 -1.54214546 3.7785108 -4.1640625 5.046875 C-4.97617187 5.27890625 -5.78828125 5.5109375 -6.625 5.75 C-7.85089844 6.11351563 -7.85089844 6.11351563 -9.1015625 6.484375 C-10.04128906 6.73960938 -10.04128906 6.73960938 -11 7 C-11 7.66 -11 8.32 -11 9 C-10.01 9.66 -9.02 10.32 -8 11 C-8 12.32 -8 13.64 -8 15 C-4.535 14.505 -4.535 14.505 -1 14 C-1 14.66 -1 15.32 -1 16 C-3.375 17.0625 -3.375 17.0625 -6 18 C-6.66 17.67 -7.32 17.34 -8 17 C-7.505 17.45375 -7.01 17.9075 -6.5 18.375 C-5 20 -5 20 -5 22 C-6.32 21.67 -7.64 21.34 -9 21 C-9 20.34 -9 19.68 -9 19 C-10.175625 18.7525 -11.35125 18.505 -12.5625 18.25 C-16.90806003 17.18103871 -20.21724066 15.36422459 -24 13 C-24 12.34 -24 11.68 -24 11 C-21.2730819 9.53743341 -18.5430812 8.08071459 -15.8125 6.625 C-15.04357422 6.2125 -14.27464844 5.8 -13.48242188 5.375 C-3.38262349 0 -3.38262349 0 0 0 Z " fill="#13F42B" transform="translate(49,88)"/>
<path d="M0 0 C2.475 0.495 2.475 0.495 5 1 C5.33 1.99 5.66 2.98 6 4 C7.0725 3.87625 8.145 3.7525 9.25 3.625 C15.41529776 3.59179373 20.94707271 6.67719501 26 10 C26.33 10.99 26.66 11.98 27 13 C27.66 13.33 28.32 13.66 29 14 C28.67 14.99 28.34 15.98 28 17 C27.34 16.67 26.68 16.34 26 16 C26 15.34 26 14.68 26 14 C25.29875 14.391875 24.5975 14.78375 23.875 15.1875 C19.95996814 16.29392205 18.5174496 14.832005 15 13 C12.21352443 13.20435808 12.21352443 13.20435808 10 14 C10.33 12.35 10.66 10.7 11 9 C9.68 9.33 8.36 9.66 7 10 C7 9.34 7 8.68 7 8 C5.35 7.67 3.7 7.34 2 7 C2 5 2 3 2 1 C1.34 0.67 0.68 0.34 0 0 Z " fill="#04AEE2" transform="translate(86,32)"/>
<path d="M0 0 C0 1.32 0 2.64 0 4 C0.33 4.99 0.66 5.98 1 7 C-2.56930911 8.63168416 -5.12047257 9 -9 9 C-9.99 9.66 -10.98 10.32 -12 11 C-12.33802675 13.54579377 -12.4887947 15.86149086 -12.51171875 18.4140625 C-12.52966995 19.14370209 -12.54762115 19.87334167 -12.56611633 20.62509155 C-12.62035132 22.95833535 -12.65415562 25.29137314 -12.6875 27.625 C-12.72066162 29.20575792 -12.7551502 30.78648861 -12.79101562 32.3671875 C-12.87608467 36.24464326 -12.94283178 40.12203655 -13 44 C-11.02 44 -9.04 44 -7 44 C-7 46.31 -7 48.62 -7 51 C-7.66 51 -8.32 51 -9 51 C-9.33 51.99 -9.66 52.98 -10 54 C-11.32 54 -12.64 54 -14 54 C-14 38.82 -14 23.64 -14 8 C-12.68 7.67 -11.36 7.34 -10 7 C-10 6.01 -10 5.02 -10 4 C-8.71086513 3.32845067 -7.41859796 2.66291141 -6.125 2 C-5.40570313 1.62875 -4.68640625 1.2575 -3.9453125 0.875 C-2 0 -2 0 0 0 Z " fill="#0DB2E4" transform="translate(90,118)"/>
<path d="M0 0 C1.65 0.33 3.3 0.66 5 1 C5.33 1.99 5.66 2.98 6 4 C4.35 3.67 2.7 3.34 1 3 C1 19.5 1 36 1 53 C-2.63 54.65 -6.26 56.3 -10 58 C-9 54 -9 54 -7 51 C-6.34 51 -5.68 51 -5 51 C-5 51.66 -5 52.32 -5 53 C-4.01 52.01 -3.02 51.02 -2 50 C-2.495 48.515 -2.495 48.515 -3 47 C-2.505 46.505 -2.505 46.505 -2 46 C-1.93600809 42.94424302 -1.93388248 39.91043562 -1.97265625 36.85546875 C-1.98530646 34.96289248 -1.99766712 33.07031425 -2.00976562 31.17773438 C-2.03457124 28.1821491 -2.06250933 25.18666395 -2.09594727 22.19116211 C-2.12615666 19.30842446 -2.1439311 16.42581427 -2.16015625 13.54296875 C-2.17361588 12.64805222 -2.1870755 11.75313568 -2.20094299 10.83110046 C-2.20601112 9.57508781 -2.20601112 9.57508781 -2.21118164 8.29370117 C-2.22236778 7.19236092 -2.22236778 7.19236092 -2.23377991 6.06877136 C-1.96476868 3.68823005 -1.17881596 2.06859224 0 0 Z " fill="#C3F5FD" transform="translate(74,22)"/>
<path d="M0 0 C0 16.17 0 32.34 0 49 C-7.875 47.875 -7.875 47.875 -10.74609375 46.37109375 C-11.35517578 46.05849609 -11.96425781 45.74589844 -12.59179688 45.42382812 C-13.20087891 45.09833984 -13.80996094 44.77285156 -14.4375 44.4375 C-15.07365234 44.10814453 -15.70980469 43.77878906 -16.36523438 43.43945312 C-17.91494576 42.63546752 -19.45818322 41.81902334 -21 41 C-17.06204091 39.77580837 -14.83887763 40.51679728 -11 42 C-11 42.66 -11 43.32 -11 44 C-9.35 44 -7.7 44 -6 44 C-6 44.66 -6 45.32 -6 46 C-4.68 46.33 -3.36 46.66 -2 47 C-2 32.15 -2 17.3 -2 2 C-3.32 2.33 -4.64 2.66 -6 3 C-4.60722783 0.21445565 -3.01148006 0 0 0 Z " fill="#44E95C" transform="translate(75,75)"/>
<path d="M0 0 C2.475 0.99 2.475 0.99 5 2 C4.01 2.495 4.01 2.495 3 3 C2.34 2.67 1.68 2.34 1 2 C1 16.85 1 31.7 1 47 C2.98 46.01 4.96 45.02 7 44 C9.375 44.3125 9.375 44.3125 11 45 C9.54462432 45.83848804 8.08559627 46.67063934 6.625 47.5 C5.81289062 47.9640625 5.00078125 48.428125 4.1640625 48.90625 C2 50 2 50 0 50 C0 66.5 0 83 0 100 C0.99 100 1.98 100 3 100 C3 99.34 3 98.68 3 98 C5.475 97.505 5.475 97.505 8 97 C7.505 97.99 7.505 97.99 7 99 C6.34 99 5.68 99 5 99 C5 99.66 5 100.32 5 101 C3.02 101 1.04 101 -1 101 C-1 84.17 -1 67.34 -1 50 C-1.66 49.67 -2.32 49.34 -3 49 C-2.01 49 -1.02 49 0 49 C0 32.83 0 16.66 0 0 Z " fill="#B5F3EF" transform="translate(75,75)"/>
<path d="M0 0 C2.31 0.66 4.62 1.32 7 2 C7 2.99 7 3.98 7 5 C3.25 6.125 3.25 6.125 1 5 C1.33 15.56 1.66 26.12 2 37 C2.66 37 3.32 37 4 37 C4.33 37.99 4.66 38.98 5 40 C4.2575 40.680625 4.2575 40.680625 3.5 41.375 C1.77390663 42.87635519 1.77390663 42.87635519 2 45 C2.66 45 3.32 45 4 45 C4 44.34 4 43.68 4 43 C6.49361571 44.20381448 8.68143083 45.45428722 11 47 C10.67 47.66 10.34 48.32 10 49 C7.03 49 4.06 49 1 49 C0.04837628 46.14512885 -0.12163139 44.39545683 -0.11352539 41.43676758 C-0.11344986 40.51603958 -0.11337433 39.59531158 -0.11329651 38.64668274 C-0.10813522 37.65597275 -0.10297394 36.66526276 -0.09765625 35.64453125 C-0.0962413 34.62775803 -0.09482635 33.6109848 -0.09336853 32.56340027 C-0.08776707 29.31307036 -0.07521432 26.06280912 -0.0625 22.8125 C-0.05748519 20.61002704 -0.05292225 18.40755299 -0.04882812 16.20507812 C-0.03779717 10.80336196 -0.02105762 5.40168588 0 0 Z " fill="#0CB2E4" transform="translate(76,27)"/>
<path d="M0 0 C0.33 0.66 0.66 1.32 1 2 C1.928125 2.1546875 1.928125 2.1546875 2.875 2.3125 C3.57625 2.539375 4.2775 2.76625 5 3 C5.41121094 3.83273438 5.82242188 4.66546875 6.24609375 5.5234375 C6.82488281 6.34070313 7.40367188 7.15796875 8 8 C10.96381518 8.60481772 10.96381518 8.60481772 14.1875 8.3125 C15.81751953 8.24482422 15.81751953 8.24482422 17.48046875 8.17578125 C18.31191406 8.11777344 19.14335937 8.05976562 20 8 C20.33 7.01 20.66 6.02 21 5 C21.99 5 22.98 5 24 5 C24.33 3.68 24.66 2.36 25 1 C27.97 1.495 27.97 1.495 31 2 C26.50587538 5.93235904 21.15240162 10 15 10 C15 10.66 15 11.32 15 12 C8.50857435 11.57664615 3.66507011 9.08900201 -2 6 C-2 4.33333333 -2 2.66666667 -2 1 C-1.34 0.67 -0.68 0.34 0 0 Z " fill="#1D8BBD" transform="translate(113,87)"/>
<path d="M0 0 C5.45593671 1.60676453 10.3302147 4.05030894 15.375 6.625 C16.20644531 7.04523437 17.03789062 7.46546875 17.89453125 7.8984375 C19.93156359 8.92866075 21.96662189 9.96258821 24 11 C23.67 11.99 23.34 12.98 23 14 C19.85691721 15.32816109 17.49136376 14.87284094 14.25 14.0625 C13.45078125 13.86785156 12.6515625 13.67320313 11.828125 13.47265625 C11.22484375 13.31667969 10.6215625 13.16070312 10 13 C10 12.34 10 11.68 10 11 C9.34 10.67 8.68 10.34 8 10 C8.66 9.67 9.32 9.34 10 9 C10 8.34 10 7.68 10 7 C9.0925 6.773125 8.185 6.54625 7.25 6.3125 C3.55111676 4.81872023 2.22094342 3.24599423 0 0 Z " fill="#0B82C3" transform="translate(126,50)"/>
<path d="M0 0 C0 0.66 0 1.32 0 2 C-1.32 2.33 -2.64 2.66 -4 3 C-4 18.18 -4 33.36 -4 49 C-2.02 48.505 -2.02 48.505 0 48 C0.33 47.34 0.66 46.68 1 46 C2.7421875 45.11328125 2.7421875 45.11328125 4.875 44.3125 C5.57367188 44.04050781 6.27234375 43.76851562 6.9921875 43.48828125 C9 43 9 43 12 44 C3.4 50 3.4 50 -2 50 C-2 50.66 -2 51.32 -2 52 C-2.99 52 -3.98 52 -5 52 C-5.07587748 44.91592242 -5.12852671 37.83194906 -5.16479492 30.74755859 C-5.17990945 28.33606043 -5.20040153 25.92458986 -5.22631836 23.51318359 C-5.26258425 20.05299072 -5.27969956 16.59316029 -5.29296875 13.1328125 C-5.30845261 12.04944611 -5.32393646 10.96607971 -5.33988953 9.84988403 C-5.34011612 8.8489975 -5.34034271 7.84811096 -5.34057617 6.81689453 C-5.34723801 5.93309113 -5.35389984 5.04928772 -5.36076355 4.13870239 C-5.24171158 3.4329306 -5.12265961 2.72715881 -5 2 C-2 0 -2 0 0 0 Z " fill="#29A7CE" transform="translate(80,123)"/>
<path d="M0 0 C3.89202152 0.7784043 5.91291449 1.28104526 9.20703125 3.06640625 C10.33334961 3.6706543 10.33334961 3.6706543 11.48242188 4.28710938 C12.25134766 4.70798828 13.02027344 5.12886719 13.8125 5.5625 C14.60076172 5.98724609 15.38902344 6.41199219 16.20117188 6.84960938 C18.1373378 7.89396554 20.07005367 8.9442077 22 10 C22 10.33 22 10.66 22 11 C19.6875 11.1875 19.6875 11.1875 17 11 C16.01 10.01 15.02 9.02 14 8 C9.71 6.02 5.42 4.04 1 2 C1.33 17.84 1.66 33.68 2 50 C1.34 50 0.68 50 0 50 C0 33.5 0 17 0 0 Z " fill="#29A6CB" transform="translate(75,25)"/>
<path d="M0 0 C-3.15520122 4.79590585 -5.56148533 5.57350435 -11 7 C-15.27448938 9.03826423 -19.13346475 11.23422466 -22.6875 14.375 C-25 16 -25 16 -28.3125 15.75 C-29.199375 15.5025 -30.08625 15.255 -31 15 C-31 14.34 -31 13.68 -31 13 C-29.68 13 -28.36 13 -27 13 C-27 12.34 -27 11.68 -27 11 C-26.34773437 10.75765625 -25.69546875 10.5153125 -25.0234375 10.265625 C-19.87223063 8.29023593 -15.57336892 6.11378309 -11 3 C-2.60723297 -1.30361648 -2.60723297 -1.30361648 0 0 Z " fill="#13A8E3" transform="translate(155,86)"/>
<path d="M0 0 C0.66 1.32 1.32 2.64 2 4 C0 7 0 7 -3 9 C-3.556875 9.61875 -4.11375 10.2375 -4.6875 10.875 C-7.77496969 13.71213431 -11.03226551 15.6250425 -15 17 C-18 16.75 -18 16.75 -20 16 C-19.34 14.35 -18.68 12.7 -18 11 C-16.948125 11.061875 -15.89625 11.12375 -14.8125 11.1875 C-10.72016217 10.98623748 -9.11389709 10.59491424 -6 8 C-4.95191959 6.02477154 -3.9479589 4.02518491 -3 2 C-2.01 1.34 -1.02 0.68 0 0 Z " fill="#1EB1DA" transform="translate(111,149)"/>
<path d="M0 0 C-1 3 -1 3 -4 5 C-5.7634375 5.495 -5.7634375 5.495 -7.5625 6 C-11.03073325 6.70977006 -11.03073325 6.70977006 -13 9 C-9.535 8.505 -9.535 8.505 -6 8 C-5.67 9.32 -5.34 10.64 -5 12 C-6.43344 12.53190541 -7.87195367 13.05015258 -9.3125 13.5625 C-10.11300781 13.85253906 -10.91351563 14.14257812 -11.73828125 14.44140625 C-14 15 -14 15 -17 14 C-17 13.01 -17 12.02 -17 11 C-17.99 10.34 -18.98 9.68 -20 9 C-2 0 -2 0 0 0 Z " fill="#10F42C" transform="translate(69,78)"/>
<path d="M0 0 C2.475 0.495 2.475 0.495 5 1 C5.33 1.99 5.66 2.98 6 4 C7.0725 3.87625 8.145 3.7525 9.25 3.625 C15.51235116 3.55742067 20.68152462 7.02165378 26 10 C22.21875 11.1171875 22.21875 11.1171875 20.25 10.0625 C16.02748213 8.06853323 11.37658278 8.54113907 7 10 C7 9.34 7 8.68 7 8 C5.35 7.67 3.7 7.34 2 7 C2 5 2 3 2 1 C1.34 0.67 0.68 0.34 0 0 Z " fill="#19B0DE" transform="translate(86,32)"/>
<path d="M0 0 C5.95269898 0.32469267 9.73106673 1.68393745 14.83203125 4.73046875 C18.50282354 6.8800318 22.38587924 8.40532393 26.375 9.875 C30.41606337 11.6068843 34.1849111 13.82232398 38 16 C37.01 16.33 36.02 16.66 35 17 C34.01 16.34 33.02 15.68 32 15 C30.35065102 14.53818229 28.70076583 14.0780908 27.046875 13.6328125 C23.2364172 12.4547702 19.49664041 10.92090117 16 9 C15.67 8.34 15.34 7.68 15 7 C13.35619657 6.53034188 11.71035762 6.06656503 10.0546875 5.640625 C6.50040105 4.53244443 3.27382003 2.7517063 0 1 C0 0.67 0 0.34 0 0 Z " fill="#0772B9" transform="translate(136,108)"/>
<path d="M0 0 C0 0.66 0 1.32 0 2 C-1.98 2.33 -3.96 2.66 -6 3 C-6 3.66 -6 4.32 -6 5 C-6.53367188 5.23074219 -7.06734375 5.46148437 -7.6171875 5.69921875 C-12.79605093 7.9660915 -17.83424086 10.41106026 -22.8359375 13.046875 C-25 14 -25 14 -28 14 C-27 11 -27 11 -25.36328125 9.90234375 C-24.68652344 9.58394531 -24.00976562 9.26554687 -23.3125 8.9375 C-22.59449219 8.59589844 -21.87648437 8.25429687 -21.13671875 7.90234375 C-19 7 -19 7 -15.625 6 C-14.75875 5.67 -13.8925 5.34 -13 5 C-12.70867187 4.33484375 -12.41734375 3.6696875 -12.1171875 2.984375 C-11 1 -11 1 -8.90625 0.390625 C-8.1121875 0.34421875 -7.318125 0.2978125 -6.5 0.25 C-5.7059375 0.19328125 -4.911875 0.1365625 -4.09375 0.078125 C-2.72986733 0.02723386 -1.3648318 0 0 0 Z " fill="#0B70B5" transform="translate(172,75)"/>
<path d="M0 0 C2.875 -0.1875 2.875 -0.1875 6 0 C6.66 0.99 7.32 1.98 8 3 C9.97082944 4.15646836 9.97082944 4.15646836 12.25 5.0625 C13.46042969 5.57490234 13.46042969 5.57490234 14.6953125 6.09765625 C16.4810837 6.79683108 18.2984739 7.41551165 20.125 8 C24.57151882 9.54661524 28.64311811 11.64311811 32 15 C31.01 15.495 31.01 15.495 30 16 C27.51445754 14.90878624 25.14982161 13.75811543 22.75 12.5 C21.30737269 11.76025863 19.86466262 11.02067865 18.421875 10.28125 C17.68904297 9.90226562 16.95621094 9.52328125 16.20117188 9.1328125 C12.81624659 7.39079239 9.40811725 5.69605835 6 4 C4 3 2 2 0 1 C0 0.67 0 0.34 0 0 Z " fill="#2E9DBF" transform="translate(79,76)"/>
<path d="M0 0 C-2.19768132 4.70931711 -4.20686503 6.12950831 -9 8 C-9.99 8.66 -10.98 9.32 -12 10 C-14.48046875 10.4140625 -14.48046875 10.4140625 -17.1875 10.625 C-18.08855469 10.69976562 -18.98960938 10.77453125 -19.91796875 10.8515625 C-20.60503906 10.90054688 -21.29210937 10.94953125 -22 11 C-18.29827831 7.92815242 -14.15955301 5.93178248 -9.875 3.8125 C-9.14667969 3.44447266 -8.41835937 3.07644531 -7.66796875 2.69726562 C-2.25342069 0 -2.25342069 0 0 0 Z " fill="#21A1CB" transform="translate(112,107)"/>
<path d="M0 0 C0.99 0 1.98 0 3 0 C3 16.83 3 33.66 3 51 C2.34 51 1.68 51 1 51 C1 50.34 1 49.68 1 49 C0.34 48.67 -0.32 48.34 -1 48 C-0.01 47.505 -0.01 47.505 1 47 C1.33 32.15 1.66 17.3 2 2 C1.01 1.67 0.02 1.34 -1 1 C-0.67 0.67 -0.34 0.34 0 0 Z " fill="#21A7D2" transform="translate(173,75)"/>
<path d="M0 0 C3.55780196 0.60990891 6.6828589 1.5783681 10 3 C7.84545751 5.35716404 5.80280126 6.78966144 2.9375 8.1875 C2.24527344 8.53167969 1.55304688 8.87585938 0.83984375 9.23046875 C-1 10 -1 10 -3 10 C-3 9.34 -3 8.68 -3 8 C-2.34 8 -1.68 8 -1 8 C-1 7.34 -1 6.68 -1 6 C-0.34 6 0.32 6 1 6 C0.67 4.02 0.34 2.04 0 0 Z " fill="#1C5BA7" transform="translate(164,122)"/>
<path d="M0 0 C0.66 1.32 1.32 2.64 2 4 C1.34 4 0.68 4 0 4 C0 4.66 0 5.32 0 6 C-3.64793184 7.27253436 -7.1936543 8.32829194 -11 9 C-10.34 8.67 -9.68 8.34 -9 8 C-9 7.34 -9 6.68 -9 6 C-9.66 6 -10.32 6 -11 6 C-11 5.34 -11 4.68 -11 4 C-10.34 4 -9.68 4 -9 4 C-9 3.34 -9 2.68 -9 2 C-6.94921875 1.77213542 -4.8984375 1.54427083 -2.84765625 1.31640625 C-0.98859771 1.18113386 -0.98859771 1.18113386 0 0 Z " fill="#1171B7" transform="translate(161,126)"/>
<path d="M0 0 C1.98 0 3.96 0 6 0 C6 2.31 6 4.62 6 7 C5.34 7 4.68 7 4 7 C3.67 7.99 3.34 8.98 3 10 C1.68 10 0.36 10 -1 10 C-0.67 6.7 -0.34 3.4 0 0 Z " fill="#05B3EC" transform="translate(77,162)"/>
<path d="M0 0 C0 0.66 0 1.32 0 2 C-0.66 2 -1.32 2 -2 2 C-2 2.66 -2 3.32 -2 4 C-2.639375 4.12375 -3.27875 4.2475 -3.9375 4.375 C-4.618125 4.58125 -5.29875 4.7875 -6 5 C-6.33 5.66 -6.66 6.32 -7 7 C-6.34 7.33 -5.68 7.66 -5 8 C-8.19714952 9.06571651 -10.65915058 9 -14 9 C-14.33 9.33 -14.66 9.66 -15 10 C-16.66617115 10.04063832 -18.33388095 10.042721 -20 10 C-18.10060262 8.10060262 -16.73748786 7.24004931 -14.375 6.0546875 C-13.66859375 5.70019531 -12.9621875 5.34570312 -12.234375 4.98046875 C-11.49703125 4.61566406 -10.7596875 4.25085938 -10 3.875 C-9.26265625 3.50246094 -8.5253125 3.12992188 -7.765625 2.74609375 C-2.2533196 0 -2.2533196 0 0 0 Z " fill="#D8EFF8" transform="translate(159,134)"/>
<path d="M0 0 C0.99 0.33 1.98 0.66 3 1 C-9.63526119 9.30317164 -9.63526119 9.30317164 -14.4375 8.6875 C-14.953125 8.460625 -15.46875 8.23375 -16 8 C-15.4225 7.7525 -14.845 7.505 -14.25 7.25 C-11.88314491 6.09999701 -11.88314491 6.09999701 -10.1875 3.9375 C-7.26399304 1.34810812 -4.81435694 1.35984499 -1 1 C-0.67 0.67 -0.34 0.34 0 0 Z " fill="#20A2CA" transform="translate(123,149)"/>
<path d="M0 0 C2.97 0.495 2.97 0.495 6 1 C1.50587538 4.93235904 -3.84759838 9 -10 9 C-10 9.66 -10 10.32 -10 11 C-11.32 10.67 -12.64 10.34 -14 10 C-14 9.34 -14 8.68 -14 8 C-9.545 7.505 -9.545 7.505 -5 7 C-4.67 6.01 -4.34 5.02 -4 4 C-3.01 4 -2.02 4 -1 4 C-0.67 2.68 -0.34 1.36 0 0 Z " fill="#0A77BC" transform="translate(138,88)"/>
<path d="M0 0 C0 1.32 0 2.64 0 4 C0.33 4.99 0.66 5.98 1 7 C-0.98 7.99 -0.98 7.99 -3 9 C-3.33 8.01 -3.66 7.02 -4 6 C-6.97 5.505 -6.97 5.505 -10 5 C-3.63636364 0 -3.63636364 0 0 0 Z " fill="#16B3E1" transform="translate(90,118)"/>
<path d="M0 0 C0.66 0.33 1.32 0.66 2 1 C-0.57075627 5.23418679 -3.59375526 6.9488171 -8 9 C-10.9375 8.75 -10.9375 8.75 -13 8 C-10.61664713 5.32561064 -8.12963852 3.84841988 -4.9375 2.25 C-4.05964844 1.80140625 -3.18179688 1.3528125 -2.27734375 0.890625 C-1.52582031 0.59671875 -0.77429688 0.3028125 0 0 Z " fill="#DEEFF7" transform="translate(173,126)"/>
<path d="M0 0 C4.62 2.31 9.24 4.62 14 7 C11 9 11 9 7 9 C6.67 8.01 6.34 7.02 6 6 C5.360625 5.87625 4.72125 5.7525 4.0625 5.625 C3.381875 5.41875 2.70125 5.2125 2 5 C1.34 3.35 0.68 1.7 0 0 Z " fill="#356CA8" transform="translate(161,67)"/>
<path d="M0 0 C-1 3 -1 3 -4 5 C-4.99 5 -5.98 5 -7 5 C-6.34 6.65 -5.68 8.3 -5 10 C-7.31 9.01 -9.62 8.02 -12 7 C-12 6.34 -12 5.68 -12 5 C-10.37750059 4.16180842 -8.75191503 3.3295884 -7.125 2.5 C-6.22007813 2.0359375 -5.31515625 1.571875 -4.3828125 1.09375 C-2 0 -2 0 0 0 Z " fill="#2CEA3C" transform="translate(37,94)"/>
<path d="M0 0 C9.11659309 0.34796157 9.11659309 0.34796157 12.625 2.9375 C14 5 14 5 14 7 C9.0276578 5.50829734 4.58154261 3.39542583 0 1 C0 0.67 0 0.34 0 0 Z " fill="#DEF6FD" transform="translate(146,59)"/>
<path d="M0 0 C2.97 0.33 5.94 0.66 9 1 C9.33 1.99 9.66 2.98 10 4 C11.65 4 13.3 4 15 4 C15.33 5.32 15.66 6.64 16 8 C10.31497465 6.35433477 5.23318364 3.70967216 0 1 C0 0.67 0 0.34 0 0 Z " fill="#3BEB55" transform="translate(54,115)"/>
<path d="M0 0 C3.375 -0.125 3.375 -0.125 7 0 C7.66 0.66 8.32 1.32 9 2 C7.68 2 6.36 2 5 2 C4.34 3.32 3.68 4.64 3 6 C1.68 6 0.36 6 -1 6 C-0.67 4.02 -0.34 2.04 0 0 Z " fill="#01B4F3" transform="translate(97,40)"/>
<path d="M0 0 C4.62675657 1.3922459 8.64686231 3.29520984 12.875 5.625 C14.02742188 6.25664063 15.17984375 6.88828125 16.3671875 7.5390625 C17.67042969 8.26222656 17.67042969 8.26222656 19 9 C19 9.33 19 9.66 19 10 C16.6875 10.1875 16.6875 10.1875 14 10 C13.566875 9.5565625 13.13375 9.113125 12.6875 8.65625 C10.47328188 6.48303592 8.14867985 5.54707241 5.3125 4.3125 C4.31863281 3.87550781 3.32476562 3.43851563 2.30078125 2.98828125 C1.54152344 2.66214844 0.78226562 2.33601563 0 2 C0 1.34 0 0.68 0 0 Z " fill="#34B0D0" transform="translate(78,26)"/>
<path d="M0 0 C6.31631828 0.40316925 10.64993984 2.71232131 16 6 C16 6.66 16 7.32 16 8 C10.31497465 6.35433477 5.23318364 3.70967216 0 1 C0 0.67 0 0.34 0 0 Z " fill="#D1FCFE" transform="translate(80,26)"/>
<path d="M0 0 C-1 3 -1 3 -4 5 C-6.33333333 5.66666667 -8.66666667 6.33333333 -11 7 C-11.99 7.66 -12.98 8.32 -14 9 C-14.66 8.34 -15.32 7.68 -16 7 C-13.71070947 5.82845707 -11.41881638 4.66261926 -9.125 3.5 C-8.47402344 3.16613281 -7.82304688 2.83226563 -7.15234375 2.48828125 C-2.2265625 0 -2.2265625 0 0 0 Z " fill="#39EB4F" transform="translate(69,78)"/>
<path d="M0 0 C0.928125 0.165 1.85625 0.33 2.8125 0.5 C5.95621353 1.07748388 5.95621353 1.07748388 9 1 C9.99 1.33 10.98 1.66 12 2 C13.1875 4.5625 13.1875 4.5625 14 7 C9.0276578 5.50829734 4.58154261 3.39542583 0 1 C0 0.67 0 0.34 0 0 Z " fill="#E8F5FE" transform="translate(160,66)"/>
<path d="M0 0 C1.2065625 0.0309375 1.2065625 0.0309375 2.4375 0.0625 C0.86625661 3.20498678 -1.8602685 3.76378824 -5 5.1875 C-6.17433594 5.72632813 -7.34867188 6.26515625 -8.55859375 6.8203125 C-11.5625 8.0625 -11.5625 8.0625 -13.5625 8.0625 C-13.5625 7.4025 -13.5625 6.7425 -13.5625 6.0625 C-10.39014843 3.88717321 -7.1335199 2.45122996 -3.5625 1.0625 C-2.5625 0.0625 -2.5625 0.0625 0 0 Z " fill="#2E73A4" transform="translate(158.5625,131.9375)"/>
<path d="M0 0 C0.33 0.66 0.66 1.32 1 2 C2.65 1.67 4.3 1.34 6 1 C4 4 4 4 1.6171875 4.51171875 C0.71226562 4.56972656 -0.19265625 4.62773437 -1.125 4.6875 C-2.03507813 4.75324219 -2.94515625 4.81898438 -3.8828125 4.88671875 C-4.93082031 4.94279297 -4.93082031 4.94279297 -6 5 C-5.1328125 3.046875 -5.1328125 3.046875 -4 1 C-1.875 0.25 -1.875 0.25 0 0 Z " fill="#0980C4" transform="translate(144,134)"/>
<path d="M0 0 C0.66 0.66 1.32 1.32 2 2 C0.35 2.66 -1.3 3.32 -3 4 C-2.34 5.32 -1.68 6.64 -1 8 C-1.99 8.495 -1.99 8.495 -3 9 C-5.35981813 8.06421005 -7.69631264 7.06652192 -10 6 C-6.87567603 3.47650757 -3.61939504 1.72743854 0 0 Z " fill="#258ABB" transform="translate(122,101)"/>
<path d="M0 0 C0.33 0.99 0.66 1.98 1 3 C-3.95 5.475 -3.95 5.475 -9 8 C-8 4 -8 4 -6 1 C-5.34 1 -4.68 1 -4 1 C-4 1.66 -4 2.32 -4 3 C-2.68 2.01 -1.36 1.02 0 0 Z " fill="#DDFEE4" transform="translate(73,72)"/>
<path d="M0 0 C2.31 0.33 4.62 0.66 7 1 C7.33 1.99 7.66 2.98 8 4 C6.02 4.99 6.02 4.99 4 6 C4 5.34 4 4.68 4 4 C2.35 3.67 0.7 3.34 -1 3 C-0.67 2.01 -0.34 1.02 0 0 Z " fill="#01B4F4" transform="translate(89,36)"/>
<path d="M0 0 C0.66 1.32 1.32 2.64 2 4 C1.01 5.485 1.01 5.485 0 7 C-2.625 7.1875 -2.625 7.1875 -5 7 C-3.75023244 3.34683329 -3.32901247 2.21934164 0 0 Z " fill="#02ABEA" transform="translate(111,149)"/>
<path d="M0 0 C9.59453303 1.55808656 9.59453303 1.55808656 13 6 C12.01 6.495 12.01 6.495 11 7 C8.3984375 5.78515625 8.3984375 5.78515625 5.375 4.0625 C4.37210938 3.49660156 3.36921875 2.93070312 2.3359375 2.34765625 C1.56507813 1.90292969 0.79421875 1.45820312 0 1 C0 0.67 0 0.34 0 0 Z " fill="#0EA0DC" transform="translate(146,110)"/>
<path d="M0 0 C2.875 -0.1875 2.875 -0.1875 6 0 C6.66 0.99 7.32 1.98 8 3 C9.94832935 4.00168531 9.94832935 4.00168531 12.125 4.6875 C12.84945312 4.93886719 13.57390625 5.19023438 14.3203125 5.44921875 C14.87460938 5.63097656 15.42890625 5.81273438 16 6 C13.04893565 7.25348607 12.02593537 7.01044806 8.984375 5.78515625 C7.91703125 5.21667969 6.8496875 4.64820312 5.75 4.0625 C4.67234375 3.49660156 3.5946875 2.93070312 2.484375 2.34765625 C1.66453125 1.90292969 0.8446875 1.45820312 0 1 C0 0.67 0 0.34 0 0 Z " fill="#36AFD1" transform="translate(79,76)"/>
<path d="M0 0 C2.97 0.495 2.97 0.495 6 1 C6 1.99 6 2.98 6 4 C5.2575 3.95875 4.515 3.9175 3.75 3.875 C0.91241048 4.00398134 -0.58773938 4.57051222 -3 6 C-2.67 4.68 -2.34 3.36 -2 2 C-1.34 2 -0.68 2 0 2 C0 1.34 0 0.68 0 0 Z " fill="#04B4EA" transform="translate(80,123)"/>
<path d="M0 0 C2.49361571 1.20381448 4.68143083 2.45428722 7 4 C6.34 4.66 5.68 5.32 5 6 C1.375 5.625 1.375 5.625 -2 5 C-2 4.01 -2 3.02 -2 2 C-1.34 2 -0.68 2 0 2 C0 1.34 0 0.68 0 0 Z " fill="#01B7F1" transform="translate(80,70)"/>
<path d="M0 0 C4.9723422 1.49170266 9.41845739 3.60457417 14 6 C13.01 6.66 12.02 7.32 11 8 C10.34 7.34 9.68 6.68 9 6 C6.94968628 5.19916172 4.87559499 4.54290981 2.77734375 3.87890625 C2.19082031 3.58886719 1.60429688 3.29882812 1 3 C0.67 2.01 0.34 1.02 0 0 Z " fill="#33A0C4" transform="translate(112,43)"/>
<path d="M0 0 C-0.5 1.8125 -0.5 1.8125 -2 4 C-4.5863924 5.26152609 -7.25200829 6.15643045 -10 7 C-10.66 6.34 -11.32 5.68 -12 5 C-10.37750059 4.16180842 -8.75191503 3.3295884 -7.125 2.5 C-6.22007813 2.0359375 -5.31515625 1.571875 -4.3828125 1.09375 C-2 0 -2 0 0 0 Z " fill="#31ED4D" transform="translate(49,88)"/>
<path d="M0 0 C4.23429756 1.31061591 8.07407404 2.94356259 12 5 C12 5.33 12 5.66 12 6 C6.73628638 6.50130606 4.0909066 5.31168629 0 2 C0 1.34 0 0.68 0 0 Z " fill="#3485B7" transform="translate(138,56)"/>
<path d="M0 0 C2.0625 0.4375 2.0625 0.4375 4 1 C0.4912812 4.09592835 -2.49197399 5.74194623 -7 7 C-7.66 6.34 -8.32 5.68 -9 5 C-8.43410156 4.72285156 -7.86820312 4.44570312 -7.28515625 4.16015625 C-6.55167969 3.79792969 -5.81820312 3.43570313 -5.0625 3.0625 C-3.96615234 2.52302734 -3.96615234 2.52302734 -2.84765625 1.97265625 C-1.03750973 1.13628173 -1.03750973 1.13628173 0 0 Z " fill="#C9F3FC" transform="translate(92,166)"/>
<path d="M0 0 C0 0.66 0 1.32 0 2 C-8.261959 6.40774487 -8.261959 6.40774487 -13 7 C-10.84545751 4.64283596 -8.80280126 3.21033856 -5.9375 1.8125 C-5.24527344 1.46832031 -4.55304688 1.12414062 -3.83984375 0.76953125 C-2 0 -2 0 0 0 Z " fill="#C0EDF8" transform="translate(133,147)"/>
<path d="M0 0 C-0.75 2.9375 -0.75 2.9375 -2 6 C-4.18096612 6.95417268 -5.64182234 7 -8 7 C-8 6.34 -8 5.68 -8 5 C-7.34 5 -6.68 5 -6 5 C-6 4.01 -6 3.02 -6 2 C-2.25 0 -2.25 0 0 0 Z " fill="#E0F8FA" transform="translate(139,144)"/>
<path d="M0 0 C0.81210937 0.41378906 0.81210937 0.41378906 1.640625 0.8359375 C4.31904312 2.15740869 7.02885041 3.39400376 9.75 4.625 C11.22726563 5.29402344 11.22726563 5.29402344 12.734375 5.9765625 C13.85585938 6.48316406 13.85585938 6.48316406 15 7 C12.19966161 8.11346788 11.09856297 8.03510273 8.203125 7.00390625 C7.22859375 6.52824219 6.2540625 6.05257812 5.25 5.5625 C4.26515625 5.08941406 3.2803125 4.61632812 2.265625 4.12890625 C1.51796875 3.75636719 0.7703125 3.38382812 0 3 C0 2.01 0 1.02 0 0 Z " fill="#CEFDCC" transform="translate(48,112)"/>
<path d="M0 0 C-0.99 0.33 -1.98 0.66 -3 1 C-2.67 2.32 -2.34 3.64 -2 5 C-7.75 3.25 -7.75 3.25 -10 1 C-3.71428571 -1.42857143 -3.71428571 -1.42857143 0 0 Z " fill="#E4FAFB" transform="translate(138,49)"/>
<path d="M0 0 C4.0694869 0.46955618 7.45135047 0.89709658 11 3 C11.66 3.33 12.32 3.66 13 4 C12.67 4.66 12.34 5.32 12 6 C7.76570244 4.68938409 3.92592596 3.05643741 0 1 C0 0.67 0 0.34 0 0 Z " fill="#DAFAFE" transform="translate(112,42)"/>
<path d="M0 0 C0 0.66 0 1.32 0 2 C-3.96 2.99 -7.92 3.98 -12 5 C-11.67 3.68 -11.34 2.36 -11 1 C-9.54182203 0.83197949 -8.0834516 0.66562857 -6.625 0.5 C-5.81289062 0.4071875 -5.00078125 0.314375 -4.1640625 0.21875 C-2 0 -2 0 0 0 Z " fill="#1362AE" transform="translate(172,75)"/>
<path d="M0 0 C4.23429756 1.31061591 8.07407404 2.94356259 12 5 C12 5.33 12 5.66 12 6 C8.8125 6.375 8.8125 6.375 5 6 C2.8596502 4.18811972 1.61011698 2.34198833 0 0 Z " fill="#3295C0" transform="translate(126,50)"/>
<path d="M0 0 C-6.28571429 4.42857143 -6.28571429 4.42857143 -10 5 C-10.33 4.01 -10.66 3.02 -11 2 C-9.73392393 1.46770674 -8.46189588 0.94955456 -7.1875 0.4375 C-6.47980469 0.14746094 -5.77210937 -0.14257812 -5.04296875 -0.44140625 C-3 -1 -3 -1 0 0 Z " fill="#20B3DB" transform="translate(92,167)"/>
<path d="M0 0 C0.66 1.32 1.32 2.64 2 4 C1.34 4 0.68 4 0 4 C0 4.66 0 5.32 0 6 C-1.98 5.34 -3.96 4.68 -6 4 C-4.60804085 1.2160817 -2.84424221 1.02101003 0 0 Z " fill="#1464B1" transform="translate(161,126)"/>
<path d="M0 0 C4.56454251 0.54339792 7.9728176 1.79463821 12 4 C12 4.33 12 4.66 12 5 C7.25081338 4.53439347 3.89217595 3.83067342 0 1 C0 0.67 0 0.34 0 0 Z " fill="#2E74A6" transform="translate(148,62)"/>
<path d="M0 0 C-2.90600261 1.25664978 -4.79604584 2 -8 2 C-8 2.66 -8 3.32 -8 4 C-9.32 3.67 -10.64 3.34 -12 3 C-12 2.34 -12 1.68 -12 1 C-10.56496445 0.63597631 -9.12683494 0.28413409 -7.6875 -0.0625 C-6.88699219 -0.25972656 -6.08648437 -0.45695312 -5.26171875 -0.66015625 C-3 -1 -3 -1 0 0 Z " fill="#0D80C5" transform="translate(136,95)"/>
<path d="M0 0 C-0.33 0.99 -0.66 1.98 -1 3 C-1.99 3 -2.98 3 -4 3 C-4.33 3.99 -4.66 4.98 -5 6 C-5.99 6 -6.98 6 -8 6 C-8 5.01 -8 4.02 -8 3 C-7.34 3 -6.68 3 -6 3 C-6 2.34 -6 1.68 -6 1 C-3 0 -3 0 0 0 Z " fill="#15A5E0" transform="translate(172,77)"/>
<path d="M0 0 C2.75 -0.25 2.75 -0.25 6 0 C8.375 2 8.375 2 10 4 C9.01 4.495 9.01 4.495 8 5 C6.0546875 4.22265625 6.0546875 4.22265625 3.875 3.0625 C3.15054688 2.68222656 2.42609375 2.30195312 1.6796875 1.91015625 C1.12539062 1.60980469 0.57109375 1.30945312 0 1 C0 0.67 0 0.34 0 0 Z " fill="#DDF7FE" transform="translate(136,54)"/>
<path d="M0 0 C1.98 0 3.96 0 6 0 C4.29374499 2.78388975 3.52373261 3.85384206 0.3125 4.75 C-0.8321875 4.87375 -0.8321875 4.87375 -2 5 C-1.34 3.35 -0.68 1.7 0 0 Z " fill="#01B7F2" transform="translate(93,160)"/>
<path d="M0 0 C-1 3 -1 3 -2.8125 4.25 C-5.33943414 5.11637742 -6.52221994 4.88492145 -9 4 C-2.25 0 -2.25 0 0 0 Z " fill="#3094B8" transform="translate(112,107)"/>
<path d="M0 0 C2.4375 0.375 2.4375 0.375 5 1 C5.33 1.66 5.66 2.32 6 3 C3.69 3.33 1.38 3.66 -1 4 C-0.67 2.68 -0.34 1.36 0 0 Z " fill="#295E9B" transform="translate(169,72)"/>
<path d="M0 0 C4.75 0.75 4.75 0.75 7 3 C3.86650268 4.04449911 3.01031744 3.93423645 0 3 C0 2.01 0 1.02 0 0 Z " fill="#0C8ACD" transform="translate(112,107)"/>
<path d="M0 0 C0.99 0 1.98 0 3 0 C3 0.66 3 1.32 3 2 C3.66 2 4.32 2 5 2 C5 2.66 5 3.32 5 4 C4.34 4 3.68 4 3 4 C3 4.66 3 5.32 3 6 C2.34 6 1.68 6 1 6 C0.67 4.02 0.34 2.04 0 0 Z " fill="#0C7ECB" transform="translate(125,106)"/>
<path d="M0 0 C0 0.99 0 1.98 0 3 C0.99 3.33 1.98 3.66 3 4 C2.67 4.66 2.34 5.32 2 6 C0.02 5.01 -1.96 4.02 -4 3 C-4 2.34 -4 1.68 -4 1 C-2 0 -2 0 0 0 Z " fill="#38E24A" transform="translate(29,98)"/>
<path d="M0 0 C-2.97 1.32 -5.94 2.64 -9 4 C-8.67 2.68 -8.34 1.36 -8 0 C-4.71303767 -0.79953138 -3.28976808 -1.09658936 0 0 Z " fill="#CEFED3" transform="translate(41,92)"/>
<path d="M0 0 C5 2 5 2 10 4 C9.67 4.66 9.34 5.32 9 6 C5.9168649 4.80100302 2.93720508 3.52299523 0 2 C0 1.34 0 0.68 0 0 Z " fill="#D2F8FC" transform="translate(99,87)"/>
<path d="M0 0 C2.4375 0.75 2.4375 0.75 5 2 C5.8125 4.125 5.8125 4.125 6 6 C5.01 6.495 5.01 6.495 4 7 C3.67 6.01 3.34 5.02 3 4 C2.01 3.67 1.02 3.34 0 3 C0 2.01 0 1.02 0 0 Z " fill="#1391C3" transform="translate(124,50)"/>
<path d="M0 0 C2.97 0.495 2.97 0.495 6 1 C5.01 2.485 5.01 2.485 4 4 C2.35 3.67 0.7 3.34 -1 3 C-0.67 2.01 -0.34 1.02 0 0 Z " fill="#01B4F7" transform="translate(78,29)"/>
<path d="M0 0 C-1.305239 2.61047801 -2.35826574 2.68066423 -5.0625 3.625 C-6.16271484 4.01558594 -6.16271484 4.01558594 -7.28515625 4.4140625 C-7.85105469 4.60742188 -8.41695312 4.80078125 -9 5 C-7.35234966 0.05704899 -4.76872479 -0.25776891 0 0 Z " fill="#308FB7" transform="translate(137,144)"/>
<path d="M0 0 C1.98 0 3.96 0 6 0 C5.67 0.66 5.34 1.32 5 2 C2.6859378 2.73075648 0.35171131 3.40138258 -2 4 C-2 3.34 -2 2.68 -2 2 C-1.34 2 -0.68 2 0 2 C0 1.34 0 0.68 0 0 Z " fill="#32669F" transform="translate(163,128)"/>
<path d="M0 0 C6.15234375 0.5859375 6.15234375 0.5859375 8 1 C8.33 1.66 8.66 2.32 9 3 C7.3125 3.75 7.3125 3.75 5 4 C2.25 2.0625 2.25 2.0625 0 0 Z " fill="#329ECC" transform="translate(93,83)"/>
<path d="M0 0 C2.31 0.33 4.62 0.66 7 1 C7.33 1.99 7.66 2.98 8 4 C5.64828869 3.40138258 3.3140622 2.73075648 1 2 C0.67 1.34 0.34 0.68 0 0 Z " fill="#CFF7FD" transform="translate(104,38)"/>
</svg>
