<svg version="1.1" id="Layer_1" xmlns="http://www.w3.org/2000/svg" xmlns:xlink="http://www.w3.org/1999/xlink" x="0px" y="0px"
	 width="100%" viewBox="0 0 120 120" enable-background="new 0 0 120 120" xml:space="preserve">
<path fill="#FDFDFD" opacity="1.000000" stroke="none" 
	d="
M0.999998,115.000000 
	C1.000000,77.047684 1.000000,39.095367 1.000000,1.071527 
	C40.902012,1.071527 80.804184,1.071527 121.000000,1.071527 
	C121.000000,39.020390 121.000000,77.041534 120.851799,115.539444 
	C120.703598,116.016205 120.411522,116.069267 120.354858,115.687729 
	C107.045311,88.570511 93.792435,61.834827 80.440536,34.899384 
	C75.688591,40.679550 74.310753,45.817696 78.332718,52.600292 
	C83.879814,61.954823 88.169724,72.054848 93.088364,82.018326 
	C78.308670,82.018326 64.113853,82.018326 49.136951,82.018326 
	C61.762272,55.961601 74.084877,30.529636 86.447014,5.016096 
	C80.302521,3.364190 76.613243,4.816749 74.796288,10.600981 
	C73.785789,13.817912 71.846649,16.743137 69.922997,20.610006 
	C67.648117,15.993335 65.656586,12.246151 63.944435,8.375386 
	C62.767269,5.714092 61.402107,4.284856 58.083752,4.274279 
	C54.601990,4.263180 54.051212,6.510242 53.003029,8.700511 
	C36.638580,42.895504 20.285299,77.095856 3.871421,111.267105 
	C3.206347,112.651695 1.970117,113.761932 0.999998,115.000000 
z"/>
<path fill="#0B0B0B" opacity="1.000000" stroke="none" 
	d="
M0.999998,115.250000 
	C1.970117,113.761932 3.206347,112.651695 3.871421,111.267105 
	C20.285299,77.095856 36.638580,42.895504 53.003029,8.700511 
	C54.051212,6.510242 54.601990,4.263180 58.083752,4.274279 
	C61.402107,4.284856 62.767269,5.714092 63.944435,8.375386 
	C65.656586,12.246151 67.648117,15.993335 69.922997,20.610006 
	C71.846649,16.743137 73.785789,13.817912 74.796288,10.600981 
	C76.613243,4.816749 80.302521,3.364190 86.447014,5.016096 
	C74.084877,30.529636 61.762272,55.961601 49.136951,82.018326 
	C64.113853,82.018326 78.308670,82.018326 93.088364,82.018326 
	C88.169724,72.054848 83.879814,61.954823 78.332718,52.600292 
	C74.310753,45.817696 75.688591,40.679550 80.440536,34.899384 
	C93.792435,61.834827 107.045311,88.570511 119.878220,115.751678 
	C118.458694,116.203224 117.425964,116.046661 116.465164,116.242676 
	C111.515320,117.252495 109.046494,114.920609 107.200104,110.487099 
	C104.649437,104.362473 101.559708,98.442039 98.352661,92.626167 
	C97.603119,91.266891 95.465408,89.881416 93.947441,89.860153 
	C78.956444,89.650177 63.960106,89.632896 48.969505,89.851196 
	C47.325352,89.875145 45.004402,91.328461 44.202629,92.783134 
	C41.158794,98.305687 38.636486,104.114021 35.870094,109.791580 
	C32.462128,116.785858 32.440937,116.775536 23.846634,115.799034 
	C27.940510,107.213898 31.979942,98.742935 36.074432,90.156509 
	C23.940134,88.530220 23.936089,88.528275 19.118385,98.541344 
	C17.749352,101.386734 15.976109,104.126404 15.144979,107.124344 
	C13.080151,114.572311 8.612571,117.656242 1.000000,116.000000 
	C1.000000,116.000000 1.000000,115.500000 0.999998,115.250000 
M40.757324,80.717804 
	C48.391144,64.832054 56.068130,48.966679 63.593010,33.029488 
	C64.358215,31.408827 64.919098,29.090424 64.344971,27.555948 
	C62.862602,23.594002 60.691303,19.889822 58.534733,15.559762 
	C47.830296,38.051121 37.435230,59.892452 26.476751,82.917595 
	C31.933144,82.325348 36.109337,81.872063 40.757324,80.717804 
z"/>
<path fill="#FCFCFC" opacity="1.000000" stroke="none" 
	d="
M1.000000,116.499962 
	C8.612571,117.656242 13.080151,114.572311 15.144979,107.124344 
	C15.976109,104.126404 17.749352,101.386734 19.118385,98.541344 
	C23.936089,88.528275 23.940134,88.530220 36.074432,90.156509 
	C31.979942,98.742935 27.940510,107.213898 23.846634,115.799034 
	C32.440937,116.775536 32.462128,116.785858 35.870094,109.791580 
	C38.636486,104.114021 41.158794,98.305687 44.202629,92.783134 
	C45.004402,91.328461 47.325352,89.875145 48.969505,89.851196 
	C63.960106,89.632896 78.956444,89.650177 93.947441,89.860153 
	C95.465408,89.881416 97.603119,91.266891 98.352661,92.626167 
	C101.559708,98.442039 104.649437,104.362473 107.200104,110.487099 
	C109.046494,114.920609 111.515320,117.252495 116.465164,116.242676 
	C117.425964,116.046661 118.458694,116.203224 119.934883,116.133209 
	C120.411522,116.069267 120.703598,116.016205 120.851799,116.008102 
	C121.000000,117.660233 121.000000,119.320465 121.000000,120.985519 
	C81.000000,120.990349 41.000000,120.990349 1.000000,120.987411 
	C1.000000,119.656288 1.000000,118.328102 1.000000,116.499962 
z"/>
<path fill="#F7F7F7" opacity="1.000000" stroke="none" 
	d="
M40.521427,81.068291 
	C36.109337,81.872063 31.933144,82.325348 26.476751,82.917595 
	C37.435230,59.892452 47.830296,38.051121 58.534733,15.559762 
	C60.691303,19.889822 62.862602,23.594002 64.344971,27.555948 
	C64.919098,29.090424 64.358215,31.408827 63.593010,33.029488 
	C56.068130,48.966679 48.391144,64.832054 40.521427,81.068291 
z"/>
</svg>